/videos/a40a1c9e-6f3d-8c09-5bdf-33af8bb0d938/hls1/main/128.ts

{"Protocol":0,"Id":"a40a1c9e6f3d8c095bdf33af8bb0d938","Path":"/data/tvshows/The IT Crowd/Season 3/The IT Crowd - S03E02 - Are We Not Men WEBDL-720p Proper.mp4","EncoderPath":null,"EncoderProtocol":null,"Type":0,"Container":"mov,mp4,m4a,3gp,3g2,mj2","Size":189024356,"Name":"The IT Crowd - S03E02 - Are We Not Men WEBDL-720p Proper","IsRemote":false,"ETag":"14956115f39951ff58f16edd83018112","RunTimeTicks":13080239999,"ReadAtNativeFramerate":false,"IgnoreDts":false,"IgnoreIndex":false,"GenPtsInput":false,"SupportsTranscoding":true,"SupportsDirectStream":true,"SupportsDirectPlay":true,"IsInfiniteStream":false,"RequiresOpening":false,"OpenToken":null,"RequiresClosing":false,"LiveStreamId":null,"BufferMs":null,"RequiresLooping":false,"SupportsProbing":true,"VideoType":0,"IsoType":null,"Video3DFormat":null,"MediaStreams":[{"Codec":"subrip","CodecTag":null,"Language":"eng","ColorRange":null,"ColorSpace":null,"ColorTransfer":null,"ColorPrimaries":null,"DvVersionMajor":null,"DvVersionMinor":null,"DvProfile":null,"DvLevel":null,"RpuPresentFlag":null,"ElPresentFlag":null,"BlPresentFlag":null,"DvBlSignalCompatibilityId":null,"Comment":null,"TimeBase":"1/1000","CodecTimeBase":null,"Title":null,"VideoRange":null,"VideoRangeType":null,"VideoDoViTitle":null,"LocalizedUndefined":"Undefined","LocalizedDefault":"Default","LocalizedForced":"Forced","LocalizedExternal":"External","DisplayTitle":"English - Forced - SUBRIP - External","NalLengthSize":null,"IsInterlaced":false,"IsAVC":null,"ChannelLayout":null,"BitRate":null,"BitDepth":null,"RefFrames":null,"PacketLength":null,"Channels":null,"SampleRate":null,"IsDefault":false,"IsForced":true,"Height":null,"Width":null,"AverageFrameRate":null,"RealFrameRate":null,"Profile":null,"Type":2,"AspectRatio":null,"Index":0,"Score":null,"IsExternal":true,"DeliveryMethod":null,"DeliveryUrl":null,"IsExternalUrl":null,"IsTextSubtitleStream":true,"SupportsExternalStream":true,"Path":"/data/tvshows/The IT Crowd/Season 3/The IT Crowd - S03E02 - Are We Not Men WEBDL-720p Proper.en.forced.srt","PixelFormat":null,"Level":0,"IsAnamorphic":null},{"Codec":"h264","CodecTag":"avc1","Language":"und","ColorRange":null,"ColorSpace":"bt709","ColorTransfer":"bt709","ColorPrimaries":"bt709","DvVersionMajor":null,"DvVersionMinor":null,"DvProfile":null,"DvLevel":null,"RpuPresentFlag":null,"ElPresentFlag":null,"BlPresentFlag":null,"DvBlSignalCompatibilityId":null,"Comment":null,"TimeBase":"1/16000","CodecTimeBase":null,"Title":null,"VideoRange":"SDR","VideoRangeType":"SDR","VideoDoViTitle":null,"LocalizedUndefined":null,"LocalizedDefault":null,"LocalizedForced":null,"LocalizedExternal":null,"DisplayTitle":"720p H264 SDR","NalLengthSize":"4","IsInterlaced":false,"IsAVC":true,"ChannelLayout":null,"BitRate":1020483,"BitDepth":8,"RefFrames":1,"PacketLength":null,"Channels":null,"SampleRate":null,"IsDefault":true,"IsForced":false,"Height":720,"Width":1276,"AverageFrameRate":25,"RealFrameRate":25,"Profile":"Main","Type":1,"AspectRatio":"16:9","Index":1,"Score":null,"IsExternal":false,"DeliveryMethod":null,"DeliveryUrl":null,"IsExternalUrl":null,"IsTextSubtitleStream":false,"SupportsExternalStream":false,"Path":null,"PixelFormat":"yuv420p","Level":52,"IsAnamorphic":null},{"Codec":"mov_text","CodecTag":"tx3g","Language":"eng","ColorRange":null,"ColorSpace":null,"ColorTransfer":null,"ColorPrimaries":null,"DvVersionMajor":null,"DvVersionMinor":null,"DvProfile":null,"DvLevel":null,"RpuPresentFlag":null,"ElPresentFlag":null,"BlPresentFlag":null,"DvBlSignalCompatibilityId":null,"Comment":null,"TimeBase":"1/1000000","CodecTimeBase":null,"Title":null,"VideoRange":null,"VideoRangeType":null,"VideoDoViTitle":null,"LocalizedUndefined":"Undefined","LocalizedDefault":"Default","LocalizedForced":"Forced","LocalizedExternal":"External","DisplayTitle":"English - Default - Forced - MOV_TEXT","NalLengthSize":null,"IsInterlaced":false,"IsAVC":null,"ChannelLayout":null,"BitRate":89,"BitDepth":null,"RefFrames":null,"PacketLength":null,"Channels":null,"SampleRate":null,"IsDefault":true,"IsForced":true,"Height":null,"Width":null,"AverageFrameRate":null,"RealFrameRate":null,"Profile":null,"Type":2,"AspectRatio":null,"Index":2,"Score":null,"IsExternal":false,"DeliveryMethod":null,"DeliveryUrl":null,"IsExternalUrl":null,"IsTextSubtitleStream":true,"SupportsExternalStream":true,"Path":null,"PixelFormat":null,"Level":0,"IsAnamorphic":null},{"Codec":"aac","CodecTag":"mp4a","Language":"eng","ColorRange":null,"ColorSpace":null,"ColorTransfer":null,"ColorPrimaries":null,"DvVersionMajor":null,"DvVersionMinor":null,"DvProfile":null,"DvLevel":null,"RpuPresentFlag":null,"ElPresentFlag":null,"BlPresentFlag":null,"DvBlSignalCompatibilityId":null,"Comment":null,"TimeBase":"1/48000","CodecTimeBase":null,"Title":null,"VideoRange":null,"VideoRangeType":null,"VideoDoViTitle":null,"LocalizedUndefined":null,"LocalizedDefault":null,"LocalizedForced":null,"LocalizedExternal":null,"DisplayTitle":"English - AAC - Stereo - Default","NalLengthSize":null,"IsInterlaced":false,"IsAVC":null,"ChannelLayout":"stereo","BitRate":129377,"BitDepth":null,"RefFrames":null,"PacketLength":null,"Channels":2,"SampleRate":48000,"IsDefault":true,"IsForced":false,"Height":null,"Width":null,"AverageFrameRate":null,"RealFrameRate":null,"Profile":"LC","Type":0,"AspectRatio":null,"Index":3,"Score":null,"IsExternal":false,"DeliveryMethod":null,"DeliveryUrl":null,"IsExternalUrl":null,"IsTextSubtitleStream":false,"SupportsExternalStream":false,"Path":null,"PixelFormat":null,"Level":0,"IsAnamorphic":null}],"MediaAttachments":[],"Formats":[],"Bitrate":1156091,"Timestamp":null,"RequiredHttpHeaders":{},"TranscodingUrl":null,"TranscodingSubProtocol":null,"TranscodingContainer":null,"AnalyzeDurationMs":null,"DefaultAudioStreamIndex":null,"DefaultSubtitleStreamIndex":null}

/usr/lib/jellyfin-ffmpeg/ffmpeg -analyzeduration 200M -ss 00:06:24.000 -f mov,mp4,m4a,3gp,3g2,mj2 -autorotate 0 -i file:"/data/tvshows/The IT Crowd/Season 3/The IT Crowd - S03E02 - Are We Not Men WEBDL-720p Proper.mp4" -map_metadata -1 -map_chapters -1 -threads 0 -map 0:0 -map 0:2 -map -0:s -codec:v:0 libx264 -preset veryfast -crf 23 -maxrate 5102416 -bufsize 10204832 -profile:v:0 main -level 51 -x264opts:0 subme=0:me_range=4:rc_lookahead=10:me=dia:no_chroma_me:8x8dct=0:partitions=none -force_key_frames:0 "expr:gte(t,384+n_forced*3)" -sc_threshold:v:0 0 -vf "setparams=color_primaries=bt709:color_trc=bt709:colorspace=bt709,scale=trunc(min(max(iw\,ih*a)\,min(1276\,720*a))/2)*2:trunc(min(max(iw/a\,ih)\,min(1276/a\,720))/2)*2,format=yuv420p" -start_at_zero -codec:a:0 copy -copyts -avoid_negative_ts disabled -max_muxing_queue_size 2048 -f hls -max_delay 5000000 -hls_time 3 -hls_segment_type mpegts -start_number 128 -hls_segment_filename "/config/data/transcodes/2c1ad4430da7aee7e9d442cf0142a4ed%d.ts" -hls_playlist_type vod -hls_list_size 0 -y "/config/data/transcodes/2c1ad4430da7aee7e9d442cf0142a4ed.m3u8"


ffmpeg version 5.1.3-Jellyfin Copyright (c) 2000-2022 the FFmpeg developers
  built with gcc 11 (Ubuntu 11.3.0-1ubuntu1~22.04.1)
  configuration: --prefix=/usr/lib/jellyfin-ffmpeg --target-os=linux --extra-libs=-lfftw3f --extra-version=Jellyfin --disable-doc --disable-ffplay --disable-ptx-compression --disable-static --disable-libxcb --disable-sdl2 --disable-xlib --enable-lto --enable-gpl --enable-version3 --enable-shared --enable-gmp --enable-gnutls --enable-chromaprint --enable-libdrm --enable-libass --enable-libfreetype --enable-libfribidi --enable-libfontconfig --enable-libbluray --enable-libmp3lame --enable-libopus --enable-libtheora --enable-libvorbis --enable-libopenmpt --enable-libdav1d --enable-libwebp --enable-libvpx --enable-libx264 --enable-libx265 --enable-libzvbi --enable-libzimg --enable-libfdk-aac --arch=amd64 --enable-libsvtav1 --enable-libshaderc --enable-libplacebo --enable-vulkan --enable-opencl --enable-vaapi --enable-amf --enable-libmfx --enable-ffnvcodec --enable-cuda --enable-cuda-llvm --enable-cuvid --enable-nvdec --enable-nvenc
  libavutil      57. 28.100 / 57. 28.100
  libavcodec     59. 37.100 / 59. 37.100
  libavformat    59. 27.100 / 59. 27.100
  libavdevice    59.  7.100 / 59.  7.100
  libavfilter     8. 44.100 /  8. 44.100
  libswscale      6.  7.100 /  6.  7.100
  libswresample   4.  7.100 /  4.  7.100
  libpostproc    56.  6.100 / 56.  6.100
Input #0, mov,mp4,m4a,3gp,3g2,mj2, from 'file:/data/tvshows/The IT Crowd/Season 3/The IT Crowd - S03E02 - Are We Not Men WEBDL-720p Proper.mp4':
  Metadata:
    major_brand     : isom
    minor_version   : 512
    compatible_brands: isomiso2avc1mp41
    encoder         : Lavf60.3.100
  Duration: 00:21:48.02, start: 0.000000, bitrate: 1156 kb/s
  Stream #0:0[0x1](und): Video: h264 (Main) (avc1 / 0x31637661), yuv420p(tv, bt709, progressive), 1276x720 [SAR 1:1 DAR 319:180], 1020 kb/s, 25 fps, 25 tbr, 16k tbn (default)
    Metadata:
      handler_name    : VideoHandler
      vendor_id       : [0][0][0][0]
  Stream #0:1[0x2](eng): Subtitle: mov_text (tx3g / 0x67337874), 0 kb/s (default) (forced)
    Metadata:
      handler_name    : SubtitleHandler
  Stream #0:2[0x3](eng): Audio: aac (LC) (mp4a / 0x6134706D), 48000 Hz, stereo, fltp, 129 kb/s (default)
    Metadata:
      handler_name    : SoundHandler
      vendor_id       : [0][0][0][0]
Stream mapping:
  Stream #0:0 -> #0:0 (h264 (native) -> h264 (libx264))
  Stream #0:2 -> #0:1 (copy)
Press [q] to stop, [?] for help
[libx264 @ 0x55f90b9a01c0] using SAR=1/1
[libx264 @ 0x55f90b9a01c0] using cpu capabilities: MMX2 SSE2Fast SSSE3 SSE4.2 AVX FMA3 BMI2 AVX2
[libx264 @ 0x55f90b9a01c0] profile Main, level 5.1, 4:2:0, 8-bit
[libx264 @ 0x55f90b9a01c0] 264 - core 163 r3060 5db6aa6 - H.264/MPEG-4 AVC codec - Copyleft 2003-2021 - http://www.videolan.org/x264.html - options: cabac=1 ref=1 deblock=1:0:0 analyse=0x1:0 me=dia subme=0 psy=1 psy_rd=1.00:0.00 mixed_ref=0 me_range=4 chroma_me=0 trellis=0 8x8dct=0 cqm=0 deadzone=21,11 fast_pskip=1 chroma_qp_offset=0 threads=6 lookahead_threads=1 sliced_threads=0 nr=0 decimate=1 interlaced=0 bluray_compat=0 constrained_intra=0 bframes=3 b_pyramid=2 b_adapt=1 b_bias=0 direct=1 weightb=1 open_gop=0 weightp=1 keyint=250 keyint_min=25 scenecut=0 intra_refresh=0 rc_lookahead=10 rc=crf mbtree=1 crf=23.0 qcomp=0.60 qpmin=0 qpmax=69 qpstep=4 vbv_maxrate=5102 vbv_bufsize=10204 crf_max=0.0 nal_hrd=none filler=0 ip_ratio=1.40 aq=1:1.00
Output #0, hls, to '/config/data/transcodes/2c1ad4430da7aee7e9d442cf0142a4ed.m3u8':
  Metadata:
    encoder         : Lavf59.27.100
  Stream #0:0: Video: h264, yuv420p(tv, bt709, progressive), 1276x720 [SAR 1:1 DAR 319:180], q=2-31, 25 fps, 90k tbn (default)
    Metadata:
      encoder         : Lavc59.37.100 libx264
    Side data:
      cpb: bitrate max/min/avg: 5102000/0/0 buffer size: 10204000 vbv_delay: N/A
  Stream #0:1: Audio: aac (LC) (mp4a / 0x6134706D), 48000 Hz, stereo, fltp, 129 kb/s (default)
frame=    1 fps=0.0 q=0.0 size=N/A time=00:00:00.00 bitrate=N/A speed=   0x    
frame=   69 fps=0.0 q=28.0 size=N/A time=00:00:02.75 bitrate=N/A speed=4.61x    
frame=  115 fps=104 q=28.0 size=N/A time=00:00:04.58 bitrate=N/A speed=4.16x    
frame=  133 fps= 83 q=28.0 size=N/A time=00:00:05.31 bitrate=N/A speed=3.31x    
frame=  161 fps= 76 q=28.0 size=N/A time=00:00:06.42 bitrate=N/A speed=3.05x    
frame=  203 fps= 78 q=28.0 size=N/A time=00:00:08.10 bitrate=N/A speed=3.11x    
frame=  249 fps= 80 q=28.0 size=N/A time=00:00:09.94 bitrate=N/A speed=3.19x    
[hls @ 0x55f90b99d640] Opening '/config/data/transcodes/2c1ad4430da7aee7e9d442cf0142a4ed128.ts' for writing
frame=  281 fps= 78 q=28.0 size=N/A time=00:00:11.22 bitrate=N/A speed=3.11x    
frame=  310 fps= 75 q=28.0 size=N/A time=00:00:12.37 bitrate=N/A speed=   3x    
frame=  339 fps= 73 q=28.0 size=N/A time=00:00:13.54 bitrate=N/A speed=2.93x    
frame=  379 fps= 74 q=28.0 size=N/A time=00:00:15.14 bitrate=N/A speed=2.95x    
frame=  423 fps= 74 q=28.0 size=N/A time=00:00:16.89 bitrate=N/A speed=2.95x    
frame=  436 fps= 70 q=28.0 size=N/A time=00:00:17.42 bitrate=N/A speed= 2.8x    
frame=  462 fps= 69 q=28.0 size=N/A time=00:00:18.45 bitrate=N/A speed=2.74x    
frame=  505 fps= 70 q=28.0 size=N/A time=00:00:20.18 bitrate=N/A speed=2.79x    
[hls @ 0x55f90b99d640] Opening '/config/data/transcodes/2c1ad4430da7aee7e9d442cf0142a4ed129.ts' for writing
frame=  555 fps= 72 q=28.0 size=N/A time=00:00:22.18 bitrate=N/A speed=2.87x    
frame=  590 fps= 72 q=28.0 size=N/A time=00:00:23.57 bitrate=N/A speed=2.86x    
frame=  631 fps= 72 q=28.0 size=N/A time=00:00:25.21 bitrate=N/A speed=2.88x    
frame=  673 fps= 72 q=28.0 size=N/A time=00:00:26.90 bitrate=N/A speed=2.88x    
frame=  719 fps= 73 q=28.0 size=N/A time=00:00:28.73 bitrate=N/A speed=2.92x    
frame=  754 fps= 73 q=28.0 size=N/A time=00:00:30.14 bitrate=N/A speed=2.92x    
[hls @ 0x55f90b99d640] Opening '/config/data/transcodes/2c1ad4430da7aee7e9d442cf0142a4ed130.ts' for writing
frame=  789 fps= 73 q=28.0 size=N/A time=00:00:31.55 bitrate=N/A speed=2.91x    
frame=  821 fps= 72 q=28.0 size=N/A time=00:00:32.83 bitrate=N/A speed=2.89x    
frame=  854 fps= 72 q=28.0 size=N/A time=00:00:34.13 bitrate=N/A speed=2.88x    
frame=  887 fps= 72 q=28.0 size=N/A time=00:00:35.45 bitrate=N/A speed=2.87x    
frame=  929 fps= 72 q=28.0 size=N/A time=00:00:37.14 bitrate=N/A speed=2.89x    
frame=  961 fps= 72 q=28.0 size=N/A time=00:00:38.42 bitrate=N/A speed=2.87x    
frame=  987 fps= 71 q=28.0 size=N/A time=00:00:39.46 bitrate=N/A speed=2.85x    
frame= 1013 fps= 71 q=28.0 size=N/A time=00:00:40.51 bitrate=N/A speed=2.82x    
[hls @ 0x55f90b99d640] Opening '/config/data/transcodes/2c1ad4430da7aee7e9d442cf0142a4ed131.ts' for writing
frame= 1039 fps= 70 q=28.0 size=N/A time=00:00:41.53 bitrate=N/A speed=2.79x    
frame= 1070 fps= 70 q=28.0 size=N/A time=00:00:42.77 bitrate=N/A speed=2.78x    
frame= 1104 fps= 69 q=28.0 size=N/A time=00:00:44.13 bitrate=N/A speed=2.76x    
frame= 1135 fps= 69 q=28.0 size=N/A time=00:00:45.37 bitrate=N/A speed=2.75x    
frame= 1167 fps= 69 q=28.0 size=N/A time=00:00:46.65 bitrate=N/A speed=2.75x    
frame= 1211 fps= 69 q=28.0 size=N/A time=00:00:48.42 bitrate=N/A speed=2.77x    
frame= 1253 fps= 70 q=28.0 size=N/A time=00:00:50.11 bitrate=N/A speed=2.79x    
[hls @ 0x55f90b99d640] Opening '/config/data/transcodes/2c1ad4430da7aee7e9d442cf0142a4ed132.ts' for writing
frame= 1284 fps= 69 q=28.0 size=N/A time=00:00:51.34 bitrate=N/A speed=2.78x    
frame= 1322 fps= 70 q=28.0 size=N/A time=00:00:52.86 bitrate=N/A speed=2.78x    
frame= 1370 fps= 70 q=28.0 size=N/A time=00:00:54.78 bitrate=N/A speed=2.81x    
frame= 1412 fps= 71 q=28.0 size=N/A time=00:00:56.46 bitrate=N/A speed=2.83x    
frame= 1451 fps= 71 q=28.0 size=N/A time=00:00:58.02 bitrate=N/A speed=2.83x    
frame= 1486 fps= 71 q=28.0 size=N/A time=00:00:59.41 bitrate=N/A speed=2.83x    
frame= 1514 fps= 70 q=28.0 size=N/A time=00:01:00.54 bitrate=N/A speed=2.82x    
[hls @ 0x55f90b99d640] Opening '/config/data/transcodes/2c1ad4430da7aee7e9d442cf0142a4ed133.ts' for writing
frame= 1544 fps= 70 q=28.0 size=N/A time=00:01:01.73 bitrate=N/A speed=2.81x    
frame= 1579 fps= 70 q=28.0 size=N/A time=00:01:03.14 bitrate=N/A speed= 2.8x    
frame= 1611 fps= 70 q=28.0 size=N/A time=00:01:04.42 bitrate=N/A speed= 2.8x    
frame= 1650 fps= 70 q=28.0 size=N/A time=00:01:05.98 bitrate=N/A speed= 2.8x    
frame= 1696 fps= 71 q=28.0 size=N/A time=00:01:07.81 bitrate=N/A speed=2.82x    
frame= 1738 fps= 71 q=28.0 size=N/A time=00:01:09.50 bitrate=N/A speed=2.82x    
[hls @ 0x55f90b99d640] Opening '/config/data/transcodes/2c1ad4430da7aee7e9d442cf0142a4ed134.ts' for writing
frame= 1771 fps= 70 q=28.0 size=N/A time=00:01:10.82 bitrate=N/A speed=2.82x    
frame= 1811 fps= 71 q=28.0 size=N/A time=00:01:12.42 bitrate=N/A speed=2.83x    
frame= 1859 fps= 71 q=28.0 size=N/A time=00:01:14.34 bitrate=N/A speed=2.84x    
frame= 1893 fps= 71 q=28.0 size=N/A time=00:01:15.71 bitrate=N/A speed=2.83x    
frame= 1926 fps= 71 q=28.0 size=N/A time=00:01:17.01 bitrate=N/A speed=2.83x    
frame= 1954 fps= 70 q=28.0 size=N/A time=00:01:18.14 bitrate=N/A speed=2.82x    
frame= 1979 fps= 70 q=28.0 size=N/A time=00:01:19.14 bitrate=N/A speed= 2.8x    
frame= 2007 fps= 70 q=28.0 size=N/A time=00:01:20.25 bitrate=N/A speed=2.79x    
[hls @ 0x55f90b99d640] Opening '/config/data/transcodes/2c1ad4430da7aee7e9d442cf0142a4ed135.ts' for writing
frame= 2028 fps= 69 q=28.0 size=N/A time=00:01:21.10 bitrate=N/A speed=2.77x    
frame= 2048 fps= 69 q=28.0 size=N/A time=00:01:21.89 bitrate=N/A speed=2.75x    
frame= 2063 fps= 68 q=28.0 size=N/A time=00:01:22.49 bitrate=N/A speed=2.72x    
frame= 2071 fps= 66 q=28.0 size=N/A time=00:01:22.81 bitrate=N/A speed=2.64x    
frame= 2080 fps= 65 q=28.0 size=N/A time=00:01:23.17 bitrate=N/A speed=2.61x    
frame= 2087 fps= 65 q=28.0 size=N/A time=00:01:23.45 bitrate=N/A speed=2.58x    
frame= 2100 fps= 64 q=28.0 size=N/A time=00:01:23.98 bitrate=N/A speed=2.55x    
frame= 2108 fps= 62 q=28.0 size=N/A time=00:01:24.30 bitrate=N/A speed= 2.5x    
frame= 2119 fps= 62 q=28.0 size=N/A time=00:01:24.73 bitrate=N/A speed=2.47x    
frame= 2124 fps= 61 q=28.0 size=N/A time=00:01:24.94 bitrate=N/A speed=2.44x    
frame= 2132 fps= 60 q=28.0 size=N/A time=00:01:25.26 bitrate=N/A speed=2.41x    
frame= 2150 fps= 60 q=28.0 size=N/A time=00:01:25.97 bitrate=N/A speed=2.39x    
frame= 2164 fps= 59 q=28.0 size=N/A time=00:01:26.54 bitrate=N/A speed=2.37x    
frame= 2175 fps= 59 q=28.0 size=N/A time=00:01:26.97 bitrate=N/A speed=2.35x    
frame= 2193 fps= 58 q=28.0 size=N/A time=00:01:27.70 bitrate=N/A speed=2.33x    
frame= 2213 fps= 58 q=28.0 size=N/A time=00:01:28.51 bitrate=N/A speed=2.32x    
frame= 2233 fps= 58 q=28.0 size=N/A time=00:01:29.30 bitrate=N/A speed=2.31x    
frame= 2252 fps= 57 q=28.0 size=N/A time=00:01:30.06 bitrate=N/A speed= 2.3x    
frame= 2266 fps= 57 q=25.0 size=N/A time=00:01:30.62 bitrate=N/A speed=2.28x    
[hls @ 0x55f90b99d640] Opening '/config/data/transcodes/2c1ad4430da7aee7e9d442cf0142a4ed136.ts' for writing
frame= 2279 fps= 57 q=28.0 size=N/A time=00:01:31.13 bitrate=N/A speed=2.27x    
frame= 2303 fps= 56 q=28.0 size=N/A time=00:01:32.09 bitrate=N/A speed=2.26x    
frame= 2328 fps= 56 q=28.0 size=N/A time=00:01:33.09 bitrate=N/A speed=2.25x    
frame= 2351 fps= 56 q=28.0 size=N/A time=00:01:34.01 bitrate=N/A speed=2.25x    
frame= 2378 fps= 56 q=28.0 size=N/A time=00:01:35.10 bitrate=N/A speed=2.25x    
frame= 2414 fps= 56 q=28.0 size=N/A time=00:01:36.53 bitrate=N/A speed=2.25x    
frame= 2448 fps= 57 q=28.0 size=N/A time=00:01:37.89 bitrate=N/A speed=2.26x    
frame= 2473 fps= 56 q=28.0 size=N/A time=00:01:38.90 bitrate=N/A speed=2.26x    
frame= 2504 fps= 56 q=28.0 size=N/A time=00:01:40.13 bitrate=N/A speed=2.25x    
[hls @ 0x55f90b99d640] Opening '/config/data/transcodes/2c1ad4430da7aee7e9d442cf0142a4ed137.ts' for writing
frame= 2532 fps= 56 q=28.0 size=N/A time=00:01:41.26 bitrate=N/A speed=2.25x    
frame= 2557 fps= 56 q=28.0 size=N/A time=00:01:42.27 bitrate=N/A speed=2.25x    
frame= 2585 fps= 56 q=28.0 size=N/A time=00:01:43.38 bitrate=N/A speed=2.25x    
frame= 2611 fps= 56 q=28.0 size=N/A time=00:01:44.42 bitrate=N/A speed=2.25x    
frame= 2633 fps= 56 q=28.0 size=N/A time=00:01:45.30 bitrate=N/A speed=2.24x    
frame= 2657 fps= 56 q=28.0 size=N/A time=00:01:46.26 bitrate=N/A speed=2.24x    
frame= 2684 fps= 56 q=28.0 size=N/A time=00:01:47.34 bitrate=N/A speed=2.23x    
frame= 2709 fps= 56 q=28.0 size=N/A time=00:01:48.35 bitrate=N/A speed=2.23x    
frame= 2741 fps= 56 q=28.0 size=N/A time=00:01:49.63 bitrate=N/A speed=2.24x    
[hls @ 0x55f90b99d640] Opening '/config/data/transcodes/2c1ad4430da7aee7e9d442cf0142a4ed138.ts' for writing
frame= 2777 fps= 56 q=28.0 size=N/A time=00:01:51.06 bitrate=N/A speed=2.24x    
frame= 2811 fps= 56 q=28.0 size=N/A time=00:01:52.42 bitrate=N/A speed=2.25x    
frame= 2842 fps= 56 q=28.0 size=N/A time=00:01:53.66 bitrate=N/A speed=2.25x    
frame= 2872 fps= 56 q=28.0 size=N/A time=00:01:54.85 bitrate=N/A speed=2.25x    
frame= 2906 fps= 56 q=28.0 size=N/A time=00:01:56.22 bitrate=N/A speed=2.25x    
frame= 2938 fps= 56 q=28.0 size=N/A time=00:01:57.50 bitrate=N/A speed=2.26x    
frame= 2964 fps= 56 q=28.0 size=N/A time=00:01:58.54 bitrate=N/A speed=2.26x    
frame= 2993 fps= 56 q=28.0 size=N/A time=00:01:59.70 bitrate=N/A speed=2.26x    
[hls @ 0x55f90b99d640] Opening '/config/data/transcodes/2c1ad4430da7aee7e9d442cf0142a4ed139.ts' for writing
frame= 3021 fps= 56 q=28.0 size=N/A time=00:02:00.83 bitrate=N/A speed=2.26x    
frame= 3058 fps= 57 q=28.0 size=N/A time=00:02:02.30 bitrate=N/A speed=2.26x    
frame= 3092 fps= 57 q=28.0 size=N/A time=00:02:03.66 bitrate=N/A speed=2.26x    
frame= 3123 fps= 57 q=28.0 size=N/A time=00:02:04.90 bitrate=N/A speed=2.26x    
frame= 3149 fps= 57 q=28.0 size=N/A time=00:02:05.95 bitrate=N/A speed=2.26x    
frame= 3179 fps= 57 q=28.0 size=N/A time=00:02:07.14 bitrate=N/A speed=2.26x    
frame= 3215 fps= 57 q=28.0 size=N/A time=00:02:08.57 bitrate=N/A speed=2.27x    
frame= 3247 fps= 57 q=28.0 size=N/A time=00:02:09.85 bitrate=N/A speed=2.27x    
[hls @ 0x55f90b99d640] Opening '/config/data/transcodes/2c1ad4430da7aee7e9d442cf0142a4ed140.ts' for writing
frame= 3276 fps= 57 q=28.0 size=N/A time=00:02:11.02 bitrate=N/A speed=2.27x    
frame= 3314 fps= 57 q=28.0 size=N/A time=00:02:12.54 bitrate=N/A speed=2.28x    
frame= 3343 fps= 57 q=28.0 size=N/A time=00:02:13.69 bitrate=N/A speed=2.28x    
frame= 3362 fps= 57 q=28.0 size=N/A time=00:02:14.46 bitrate=N/A speed=2.27x    
frame= 3382 fps= 57 q=28.0 size=N/A time=00:02:15.25 bitrate=N/A speed=2.27x    
frame= 3402 fps= 57 q=28.0 size=N/A time=00:02:16.06 bitrate=N/A speed=2.26x    
frame= 3423 fps= 56 q=28.0 size=N/A time=00:02:16.89 bitrate=N/A speed=2.25x    
frame= 3443 fps= 56 q=28.0 size=N/A time=00:02:17.70 bitrate=N/A speed=2.25x    
frame= 3456 fps= 56 q=28.0 size=N/A time=00:02:18.21 bitrate=N/A speed=2.24x    
frame= 3479 fps= 56 q=28.0 size=N/A time=00:02:19.13 bitrate=N/A speed=2.23x    
frame= 3503 fps= 56 q=28.0 size=N/A time=00:02:20.09 bitrate=N/A speed=2.23x    
[hls @ 0x55f90b99d640] Opening '/config/data/transcodes/2c1ad4430da7aee7e9d442cf0142a4ed141.ts' for writing
frame= 3529 fps= 56 q=28.0 size=N/A time=00:02:21.14 bitrate=N/A speed=2.23x    
frame= 3555 fps= 56 q=28.0 size=N/A time=00:02:22.18 bitrate=N/A speed=2.22x    
frame= 3576 fps= 55 q=28.0 size=N/A time=00:02:23.01 bitrate=N/A speed=2.22x    
frame= 3597 fps= 55 q=28.0 size=N/A time=00:02:23.87 bitrate=N/A speed=2.21x    
frame= 3621 fps= 55 q=28.0 size=N/A time=00:02:24.83 bitrate=N/A speed=2.21x    
frame= 3638 fps= 55 q=28.0 size=N/A time=00:02:25.49 bitrate=N/A speed= 2.2x    
frame= 3664 fps= 55 q=28.0 size=N/A time=00:02:26.53 bitrate=N/A speed= 2.2x    
frame= 3681 fps= 55 q=28.0 size=N/A time=00:02:27.22 bitrate=N/A speed=2.19x    
frame= 3694 fps= 55 q=28.0 size=N/A time=00:02:27.73 bitrate=N/A speed=2.18x    
frame= 3713 fps= 54 q=28.0 size=N/A time=00:02:28.50 bitrate=N/A speed=2.18x    
frame= 3741 fps= 55 q=28.0 size=N/A time=00:02:29.63 bitrate=N/A speed=2.18x    
frame= 3764 fps= 54 q=28.0 size=N/A time=00:02:30.54 bitrate=N/A speed=2.17x    
[hls @ 0x55f90b99d640] Opening '/config/data/transcodes/2c1ad4430da7aee7e9d442cf0142a4ed142.ts' for writing
frame= 3788 fps= 54 q=28.0 size=N/A time=00:02:31.50 bitrate=N/A speed=2.17x    
frame= 3825 fps= 54 q=28.0 size=N/A time=00:02:32.98 bitrate=N/A speed=2.18x    
frame= 3853 fps= 54 q=28.0 size=N/A time=00:02:34.11 bitrate=N/A speed=2.18x    
frame= 3864 fps= 54 q=28.0 size=N/A time=00:02:34.53 bitrate=N/A speed=2.17x    
frame= 3880 fps= 54 q=28.0 size=N/A time=00:02:35.17 bitrate=N/A speed=2.16x    
frame= 3896 fps= 54 q=28.0 size=N/A time=00:02:35.81 bitrate=N/A speed=2.15x    
frame= 3915 fps= 54 q=28.0 size=N/A time=00:02:36.58 bitrate=N/A speed=2.15x    
frame= 3937 fps= 54 q=28.0 size=N/A time=00:02:37.46 bitrate=N/A speed=2.15x    
frame= 3960 fps= 54 q=28.0 size=N/A time=00:02:38.37 bitrate=N/A speed=2.14x    
frame= 3991 fps= 54 q=28.0 size=N/A time=00:02:39.61 bitrate=N/A speed=2.14x    
frame= 4017 fps= 54 q=28.0 size=N/A time=00:02:40.66 bitrate=N/A speed=2.14x    
[hls @ 0x55f90b99d640] Opening '/config/data/transcodes/2c1ad4430da7aee7e9d442cf0142a4ed143.ts' for writing
frame= 4043 fps= 54 q=28.0 size=N/A time=00:02:41.70 bitrate=N/A speed=2.14x    
frame= 4068 fps= 53 q=28.0 size=N/A time=00:02:42.70 bitrate=N/A speed=2.14x    
frame= 4091 fps= 53 q=28.0 size=N/A time=00:02:43.62 bitrate=N/A speed=2.14x    
frame= 4124 fps= 54 q=28.0 size=N/A time=00:02:44.94 bitrate=N/A speed=2.14x    
frame= 4155 fps= 54 q=28.0 size=N/A time=00:02:46.18 bitrate=N/A speed=2.14x    
frame= 4173 fps= 53 q=28.0 size=N/A time=00:02:46.91 bitrate=N/A speed=2.14x    
frame= 4197 fps= 53 q=28.0 size=N/A time=00:02:47.87 bitrate=N/A speed=2.13x    
frame= 4234 fps= 53 q=28.0 size=N/A time=00:02:49.34 bitrate=N/A speed=2.14x    
frame= 4254 fps= 53 q=28.0 size=N/A time=00:02:50.13 bitrate=N/A speed=2.13x    
[hls @ 0x55f90b99d640] Opening '/config/data/transcodes/2c1ad4430da7aee7e9d442cf0142a4ed144.ts' for writing
frame= 4279 fps= 53 q=28.0 size=N/A time=00:02:51.13 bitrate=N/A speed=2.13x    
frame= 4314 fps= 53 q=28.0 size=N/A time=00:02:52.54 bitrate=N/A speed=2.14x    
frame= 4344 fps= 53 q=28.0 size=N/A time=00:02:53.73 bitrate=N/A speed=2.14x    
frame= 4373 fps= 53 q=28.0 size=N/A time=00:02:54.91 bitrate=N/A speed=2.14x    
frame= 4400 fps= 53 q=28.0 size=N/A time=00:02:55.97 bitrate=N/A speed=2.14x    
frame= 4424 fps= 53 q=28.0 size=N/A time=00:02:56.93 bitrate=N/A speed=2.14x    
frame= 4449 fps= 53 q=28.0 size=N/A time=00:02:57.94 bitrate=N/A speed=2.13x    
frame= 4484 fps= 53 q=28.0 size=N/A time=00:02:59.34 bitrate=N/A speed=2.14x    
frame= 4517 fps= 54 q=28.0 size=N/A time=00:03:00.67 bitrate=N/A speed=2.14x    
[hls @ 0x55f90b99d640] Opening '/config/data/transcodes/2c1ad4430da7aee7e9d442cf0142a4ed145.ts' for writing
frame= 4546 fps= 54 q=28.0 size=N/A time=00:03:01.82 bitrate=N/A speed=2.14x    
frame= 4579 fps= 54 q=28.0 size=N/A time=00:03:03.14 bitrate=N/A speed=2.14x    

[q] command received. Exiting.

[hls @ 0x55f90b99d640] Opening '/config/data/transcodes/2c1ad4430da7aee7e9d442cf0142a4ed146.ts' for writing
frame= 4590 fps= 54 q=-1.0 Lsize=N/A time=00:03:03.55 bitrate=N/A speed=2.14x    
video:29322kB audio:2926kB subtitle:0kB other streams:0kB global headers:0kB muxing overhead: unknown
[libx264 @ 0x55f90b9a01c0] frame I:19    Avg QP:18.74  size: 52677
[libx264 @ 0x55f90b9a01c0] frame P:1392  Avg QP:21.96  size: 14729
[libx264 @ 0x55f90b9a01c0] frame B:3179  Avg QP:25.38  size:  2681
[libx264 @ 0x55f90b9a01c0] consecutive B-frames:  2.0% 16.0%  2.9% 79.1%
[libx264 @ 0x55f90b9a01c0] mb I  I16..4: 20.0%  0.0% 80.0%
[libx264 @ 0x55f90b9a01c0] mb P  I16..4: 16.5%  0.0%  0.0%  P16..4: 54.6%  0.0%  0.0%  0.0%  0.0%    skip:28.9%
[libx264 @ 0x55f90b9a01c0] mb B  I16..4:  1.6%  0.0%  0.0%  B16..8: 18.3%  0.0%  0.0%  direct: 3.4%  skip:76.7%  L0:37.1% L1:48.6% BI:14.3%
[libx264 @ 0x55f90b9a01c0] coded y,uvDC,uvAC intra: 32.4% 48.2% 8.9% inter: 7.7% 10.2% 0.1%
[libx264 @ 0x55f90b9a01c0] i16 v,h,dc,p: 39% 25% 16% 20%
[libx264 @ 0x55f90b9a01c0] i4 v,h,dc,ddl,ddr,vr,hd,vl,hu: 30% 22%  9%  9%  7%  6%  6%  6%  6%
[libx264 @ 0x55f90b9a01c0] i8c dc,h,v,p: 38% 22% 28% 12%
[libx264 @ 0x55f90b9a01c0] Weighted P-Frames: Y:1.9% UV:1.0%
[libx264 @ 0x55f90b9a01c0] kb/s:1308.29